<svg width="115" height="60" viewBox="0 0 115 60" fill="none" xmlns="http://www.w3.org/2000/svg">
<g clip-path="url(#clip0_114_1443)">
<path d="M21.7607 56.2191C20.7822 57.4004 19.3952 58.3266 17.5997 58.9844C15.8042 59.6466 13.8112 59.9822 11.6208 60.0001C9.32255 60.0135 7.29816 59.5303 5.56104 58.5414C3.81943 57.5525 2.47283 56.1072 1.51674 54.21C0.55167 52.3083 0.0534262 50.0755 0.0130281 47.5026L-0.000437921 45.6993C-0.0183926 43.0548 0.412521 40.7638 1.2923 38.8218C2.17208 36.8798 3.45136 35.3943 5.13012 34.3562C6.80889 33.318 8.77942 32.7945 11.0417 32.7766C14.1928 32.7542 16.6615 33.4881 18.4525 34.9737C20.239 36.4592 21.3073 38.6339 21.6574 41.4932L16.3249 41.5289C16.069 40.0121 15.5259 38.9068 14.6865 38.2088C13.8471 37.5108 12.698 37.1662 11.2392 37.1752C9.37642 37.1886 7.96248 37.8956 7.0019 39.2961C6.03684 40.6967 5.56104 42.7774 5.56553 45.5292L5.57899 47.2206C5.59695 49.9994 6.14008 52.0935 7.20838 53.5075C8.27669 54.9214 9.83426 55.6195 11.8766 55.6061C13.9324 55.5926 15.3957 55.1452 16.2665 54.2637L16.2351 49.6951L11.2527 49.7309L11.2258 45.7082L21.6844 45.6366L21.7562 56.2101L21.7607 56.2191Z" fill="#0099D9"/>
<path d="M66.984 53.7985L57.3827 53.8656L55.5962 59.338L49.7744 59.3783L59.4879 32.817L64.5646 32.7812L74.6956 59.2083L68.8737 59.2486L66.993 53.803L66.984 53.7985ZM58.8326 49.4313L65.4758 49.3865L62.0689 39.4932L58.8326 49.4313Z" fill="#0099D9"/>
<path d="M81.7972 54.7738L93.4273 54.6933L93.4588 59.0784L76.3524 59.1947L76.1729 32.7006L81.649 32.6648L81.8017 54.7738H81.7972Z" fill="#0099D9"/>
<path d="M109.506 52.0175C109.497 50.9883 109.128 50.1963 108.392 49.6504C107.656 49.1045 106.341 48.5317 104.438 47.9321C102.535 47.3326 101.026 46.7374 99.9177 46.1513C96.8879 44.5449 95.3662 42.3657 95.3438 39.6139C95.3348 38.182 95.7298 36.9022 96.5333 35.7746C97.3367 34.647 98.4903 33.7611 100.003 33.1212C101.516 32.4813 103.212 32.1547 105.098 32.1413C106.996 32.1278 108.689 32.459 110.179 33.1346C111.669 33.8103 112.827 34.7679 113.658 36.0118C114.488 37.2557 114.91 38.6742 114.919 40.2627L109.443 40.2985C109.434 39.0858 109.043 38.1462 108.276 37.475C107.504 36.8083 106.426 36.4772 105.039 36.4861C103.702 36.4951 102.66 36.7859 101.924 37.3542C101.184 37.9225 100.82 38.6697 100.824 39.5915C100.829 40.4551 101.269 41.171 102.144 41.7482C103.019 42.3255 104.303 42.8624 105.995 43.3591C109.12 44.2719 111.395 45.4174 112.827 46.7866C114.259 48.1604 114.986 49.8786 115 51.9414C115.013 54.2324 114.156 56.0401 112.428 57.3557C110.695 58.6712 108.356 59.3379 105.412 59.3603C103.37 59.3737 101.502 59.0158 99.819 58.2774C98.1357 57.5436 96.8475 56.5279 95.9542 55.2392C95.061 53.946 94.6121 52.447 94.5986 50.7332L100.093 50.6975C100.111 53.6194 101.875 55.0691 105.38 55.0468C106.682 55.0378 107.697 54.7649 108.424 54.2324C109.151 53.6999 109.51 52.9616 109.506 52.013V52.0175Z" fill="#0099D9"/>
<path d="M31.483 42.5581C31.8152 41.9943 32.2192 41.4797 32.6815 41.0233L28.7539 36.7322C27.7664 37.6718 26.9225 38.7637 26.2627 39.9673L31.483 42.5581Z" fill="#28A838"/>
<path d="M41.1064 39.5288C41.699 39.8017 42.2555 40.1463 42.7538 40.5579L46.6904 36.2713C45.6535 35.3808 44.4774 34.6425 43.2027 34.1011L41.1064 39.5288Z" fill="#D7A600"/>
<path d="M50.1246 40.8174L44.9043 43.4127C45.1557 43.9944 45.3307 44.6074 45.425 45.2517L51.2288 44.7058C51.0583 43.3366 50.6767 42.03 50.1201 40.8219" fill="#C60F28"/>
<path d="M44.5321 42.661L49.748 40.0702C49.1016 38.871 48.2757 37.7837 47.3106 36.844L43.374 41.1262C43.8229 41.5871 44.2134 42.1017 44.5321 42.661Z" fill="#00973B"/>
<path d="M30.446 46.3571C30.446 46.2407 30.446 46.1244 30.455 46.0081L24.6467 45.489C24.6287 45.7754 24.6152 46.0662 24.6152 46.3571C24.6152 47.4668 24.7544 48.5452 25.0102 49.5743L30.6166 47.9724C30.4999 47.4534 30.4415 46.9119 30.4415 46.3571" fill="#427935"/>
<path d="M43.7997 51.1135C43.3867 51.6147 42.9109 52.0621 42.3857 52.4425L45.4515 57.3914C46.5871 56.6218 47.6016 55.6821 48.4544 54.6127L43.8042 51.118L43.7997 51.1135Z" fill="#FABD00"/>
<path d="M45.5104 46.3569C45.5104 46.9028 45.4521 47.4398 45.3398 47.9544L50.9462 49.5608C51.2021 48.5361 51.3367 47.4622 51.3367 46.3569C51.3367 46.084 51.3277 45.811 51.3098 45.5381L45.5059 46.084C45.5059 46.1735 45.5104 46.263 45.5104 46.3569Z" fill="#E83819"/>
<path d="M32.2507 51.2253L27.6094 54.7424C28.4712 55.8029 29.4946 56.7246 30.6392 57.4808L33.705 52.5364C33.1664 52.165 32.6771 51.722 32.2507 51.2253Z" fill="#F5A200"/>
<path d="M30.5408 45.1713C30.644 44.518 30.8325 43.8916 31.0974 43.3054L25.8815 40.7146C25.307 41.9362 24.912 43.2607 24.7324 44.6523L30.5453 45.1713H30.5408Z" fill="#0075BA"/>
<path d="M44.7384 57.8389L41.6771 52.8989C41.1205 53.2121 40.5235 53.4582 39.8906 53.6238L40.9724 59.3424C42.3145 59.0336 43.5848 58.5235 44.7384 57.8434" fill="#970B31"/>
<path d="M45.1158 48.7598C44.9138 49.355 44.64 49.9143 44.2988 50.4333L48.9536 53.9325C49.7077 52.8496 50.3092 51.6504 50.7176 50.3618L45.1158 48.7554V48.7598Z" fill="#00A6D9"/>
<path d="M39.0648 53.7849C38.7102 53.8341 38.3466 53.8655 37.9785 53.8655C37.6823 53.8655 37.3905 53.8476 37.1033 53.8118L36.0215 59.5303C36.6589 59.6243 37.3142 59.6735 37.9785 59.6735C38.7147 59.6735 39.4374 59.6109 40.1421 59.499L39.0648 53.7894V53.7849Z" fill="#ED6A02"/>
<path d="M38.459 38.8622C39.1054 38.9024 39.7293 39.0277 40.3218 39.2201L42.418 33.7924C41.1701 33.3539 39.8415 33.0944 38.459 33.0452V38.8577V38.8622Z" fill="#E5001E"/>
<path d="M36.2725 53.6685C35.6217 53.5164 34.9977 53.2792 34.4232 52.9705L31.3574 57.9149C32.5379 58.5861 33.8262 59.0872 35.1952 59.3781L36.2725 53.6685Z" fill="#DC007A"/>
<path d="M35.7161 39.1933C36.3221 39.0009 36.9595 38.8845 37.6193 38.8577V33.0452C36.2189 33.081 34.8723 33.336 33.6064 33.7745L35.7161 39.1977V39.1933Z" fill="#003067"/>
<path d="M31.7387 50.5543C31.3706 50.0083 31.0654 49.4132 30.8499 48.7778L25.248 50.3797C25.6745 51.7132 26.3029 52.9526 27.0974 54.0668L31.7387 50.5498V50.5543Z" fill="#D39200"/>
<path d="M33.3104 40.4684C33.8042 40.0791 34.3428 39.7525 34.9263 39.493L32.8211 34.0742C31.5643 34.5977 30.4107 35.3092 29.3828 36.1728L33.3104 40.4684Z" fill="#004C88"/>
<path d="M6.98367 9.04782C6.98367 8.62273 6.83106 8.28714 6.53032 8.04998C6.22509 7.81283 5.69542 7.56672 4.93235 7.31167C4.16927 7.05662 3.54983 6.81052 3.06506 6.57336C1.49402 5.80373 0.708498 4.74772 0.708498 3.40087C0.708498 2.72967 0.906 2.13903 1.29652 1.62892C1.68703 1.11882 2.24363 0.716101 2.95733 0.434201C3.67552 0.147826 4.47899 0.00463867 5.37224 0.00463867C6.26548 0.00463867 7.02856 0.16125 7.71982 0.469998C8.41107 0.778746 8.94972 1.22173 9.33125 1.79448C9.71279 2.36723 9.9058 3.025 9.9058 3.75883H6.98816C6.98816 3.26663 6.83555 2.88181 6.53481 2.61333C6.23406 2.34038 5.8211 2.20615 5.30491 2.20615C4.78871 2.20615 4.37126 2.32248 4.06603 2.55069C3.76529 2.77889 3.61267 3.07422 3.61267 3.42771C3.61267 3.73646 3.77876 4.01836 4.11092 4.26894C4.44308 4.51952 5.0311 4.78352 5.87048 5.05199C6.70986 5.32047 7.39663 5.61132 7.93527 5.92007C9.24597 6.6718 9.90131 7.70991 9.90131 9.0344C9.90131 10.0904 9.50182 10.9227 8.70284 11.5268C7.90385 12.1308 6.80413 12.4306 5.41264 12.4306C4.42961 12.4306 3.54086 12.2561 2.74187 11.9026C1.94289 11.5491 1.34589 11.0703 0.941909 10.4573C0.537928 9.8443 0.335938 9.14179 0.335938 8.34083H3.27153C3.27153 8.98965 3.43762 9.46843 3.77427 9.77271C4.11092 10.0815 4.65405 10.2336 5.41264 10.2336C5.89741 10.2336 6.27895 10.1307 6.55725 9.92037C6.83555 9.71454 6.97918 9.41921 6.97918 9.04334L6.98367 9.04782Z" fill="#0099D9"/>
<path d="M21.096 0.165771V8.08135C21.096 8.98075 20.903 9.75485 20.5215 10.4126C20.14 11.0704 19.5878 11.5671 18.8697 11.9116C18.1515 12.2562 17.3076 12.4262 16.3291 12.4262C14.8523 12.4262 13.6852 12.0458 12.8369 11.2807C11.9885 10.5155 11.5531 9.46848 11.5352 8.13952V0.165771H14.4752V8.19769C14.5067 9.52217 15.1261 10.1844 16.3246 10.1844C16.9305 10.1844 17.3884 10.0189 17.6981 9.68773C18.0078 9.35661 18.1649 8.81519 18.1649 8.06793V0.165771H21.0916H21.096Z" fill="#0099D9"/>
<path d="M29.3509 9.04782C29.3509 8.62273 29.1982 8.28714 28.8975 8.04998C28.5923 7.81283 28.0626 7.56672 27.2995 7.31167C26.5365 7.05662 25.917 6.81052 25.4322 6.57336C23.8612 5.80373 23.0757 4.74772 23.0757 3.40087C23.0757 2.72967 23.2732 2.13903 23.6637 1.62892C24.0542 1.11882 24.6108 0.716101 25.3245 0.434201C26.0427 0.147826 26.8462 0.00463867 27.7394 0.00463867C28.6327 0.00463867 29.3957 0.16125 30.087 0.469998C30.7783 0.778746 31.3169 1.22173 31.6984 1.79448C32.08 2.36723 32.273 3.025 32.273 3.75883H29.3553C29.3553 3.26663 29.2027 2.88181 28.902 2.61333C28.6012 2.34038 28.1883 2.20615 27.6721 2.20615C27.1559 2.20615 26.7384 2.32248 26.4332 2.55069C26.1325 2.77889 25.9799 3.07422 25.9799 3.42771C25.9799 3.73646 26.1459 4.01836 26.4781 4.26894C26.8103 4.51952 27.3983 4.78352 28.2377 5.05199C29.0771 5.32047 29.7638 5.61132 30.3025 5.92007C31.6132 6.6718 32.2685 7.70991 32.2685 9.0344C32.2685 10.0904 31.869 10.9227 31.07 11.5268C30.271 12.1308 29.1713 12.4306 27.7798 12.4306C26.7968 12.4306 25.908 12.2561 25.1091 11.9026C24.3101 11.5491 23.7131 11.0703 23.3091 10.4573C22.9051 9.8443 22.7031 9.14179 22.7031 8.34083H25.6387C25.6387 8.98965 25.8048 9.46843 26.1415 9.77271C26.4781 10.0815 27.0212 10.2336 27.7798 10.2336C28.2646 10.2336 28.6461 10.1307 28.9244 9.92037C29.2027 9.71454 29.3464 9.41921 29.3464 9.04334L29.3509 9.04782Z" fill="#0099D9"/>
<path d="M43.4725 2.4165H39.8322V12.2606H36.9056V2.4165H33.3281V0.165771H43.4725V2.4165Z" fill="#0099D9"/>
<path d="M50.7663 10.001H46.7579L46.0577 12.2606H42.9336L47.3864 0.165771H50.1379L54.6221 12.2606H51.48L50.7708 10.001H50.7663ZM47.4582 7.75023H50.0661L48.7599 3.55305L47.4582 7.75023Z" fill="#0099D9"/>
<path d="M58.7878 12.2606H55.8701V0.165771H58.7878V12.2606Z" fill="#0099D9"/>
<path d="M71.1276 12.2606H68.219L63.9188 4.73434V12.2606H60.9922V0.165771H63.9188L68.21 7.69206V0.165771H71.1276V12.2606Z" fill="#0099D9"/>
<path d="M80.1902 10.001H76.1818L75.4815 12.2606H72.3574L76.8057 0.165771H79.5573L84.0415 12.2606H80.8994L80.1902 10.001ZM76.882 7.75023H79.4899L78.1837 3.55305L76.882 7.75023Z" fill="#0099D9"/>
<path d="M85.0957 12.2606V0.165771H89.4542C91.0163 0.165771 92.2013 0.452146 93.0182 1.02042C93.8307 1.59317 94.2391 2.42097 94.2391 3.50383C94.2391 4.13027 94.0955 4.66275 93.8037 5.10574C93.5165 5.54872 93.09 5.87537 92.529 6.08568C93.1619 6.25124 93.6466 6.55998 93.9878 7.01639C94.3244 7.4728 94.495 8.02318 94.495 8.67647C94.495 9.86224 94.118 10.7527 93.3639 11.3478C92.6098 11.9429 91.4966 12.2472 90.0198 12.2562H85.0957V12.2606ZM88.0178 5.20865H89.544C90.1814 5.20418 90.6392 5.08784 90.9085 4.85963C91.1824 4.63143 91.317 4.29583 91.317 3.85285C91.317 3.34274 91.1689 2.97582 90.8771 2.74762C90.5809 2.52389 90.1096 2.41202 89.4542 2.41202H88.0223V5.21313L88.0178 5.20865ZM88.0178 7.11931V10.0189H89.9345C90.4642 10.0189 90.8681 9.89804 91.1509 9.65641C91.4337 9.41478 91.5774 9.07471 91.5774 8.64068C91.5774 7.63389 91.0746 7.12379 90.0692 7.11931H88.0178Z" fill="#0099D9"/>
<path d="M99.1991 10.0189H104.289V12.2606H96.2725V0.165771H99.1991V10.0189Z" fill="#0099D9"/>
<path d="M113.222 7.12826H108.621V10.0189H114.057V12.2606H105.699V0.165771H114.075V2.4165H108.626V4.96702H113.227V7.12826H113.222Z" fill="#0099D9"/>
<path d="M0.712891 28.6242V16.771H4.54174C5.59209 16.771 6.53471 17.0082 7.37409 17.4825C8.21348 17.9568 8.86882 18.628 9.33565 19.4916C9.80696 20.3552 10.0449 21.3261 10.0493 22.4001V22.946C10.0493 24.0333 9.82042 25.0043 9.35809 25.8634C8.89576 26.7225 8.24939 27.3982 7.41449 27.8814C6.5796 28.3692 5.64595 28.6108 4.61804 28.6198H0.712891V28.6242ZM3.57667 18.977V26.4272H4.57316C5.39458 26.4272 6.02749 26.1363 6.46738 25.5502C6.90727 24.9685 7.12722 24.1004 7.12722 22.9504V22.4358C7.12722 21.2903 6.90727 20.4267 6.46738 19.8451C6.02749 19.2634 5.38561 18.9725 4.54174 18.9725H3.57667V18.977Z" fill="#0099D9"/>
<path d="M18.2685 23.5901H14.0581V26.4226H19.0854V28.6196H11.1943V16.7664H19.1034V18.9723H14.0626V21.4736H18.273V23.5901H18.2685Z" fill="#0099D9"/>
<path d="M25.3695 25.398L27.7395 16.771H30.94L26.9405 28.6242H23.803L19.835 16.771H23.0129L25.374 25.398H25.3695Z" fill="#0099D9"/>
<path d="M38.8355 23.5901H34.67V26.4226H39.6525V28.6196H31.8018V16.7664H39.6704V18.9723H34.67V21.4736H38.8355V23.5901Z" fill="#0099D9"/>
<path d="M43.5034 26.4226H48.0415V28.6196H40.6396V16.7664H43.5079V26.4181L43.5034 26.4226Z" fill="#0099D9"/>
<path d="M58.702 22.9415C58.702 24.096 58.4866 25.1206 58.0557 26.0111C57.6247 26.9015 57.0143 27.5862 56.2243 28.0649C55.4343 28.5437 54.532 28.7853 53.5176 28.7853C52.5032 28.7853 51.6054 28.5527 50.8244 28.0873C50.0389 27.622 49.4284 26.9597 48.993 26.0961C48.5531 25.2325 48.3242 24.2436 48.3018 23.125V22.4583C48.3018 21.2993 48.5172 20.2746 48.9436 19.3842C49.3701 18.4982 49.985 17.8136 50.7795 17.3304C51.5785 16.8471 52.4852 16.6055 53.5041 16.6055C54.5231 16.6055 55.4073 16.8426 56.1973 17.3214C56.9874 17.8002 57.6023 18.4803 58.0377 19.3618C58.4776 20.2433 58.6975 21.2546 58.702 22.3956V22.9415ZM55.7889 22.4448C55.7889 21.268 55.5914 20.3731 55.1964 19.7645C54.8014 19.156 54.2358 18.8472 53.5041 18.8472C52.0678 18.8472 51.3092 19.9212 51.2239 22.069L51.2149 22.9415C51.2149 24.1049 51.4079 24.9954 51.794 25.6218C52.18 26.2438 52.7545 26.557 53.5176 26.557C54.2807 26.557 54.8014 26.2527 55.1919 25.6352C55.5824 25.0222 55.7844 24.1407 55.7889 22.9907V22.4448Z" fill="#0099D9"/>
<path d="M62.711 24.6016V28.6242H59.8428V16.771H64.5873C65.4985 16.771 66.302 16.9366 67.0022 17.2722C67.7025 17.6077 68.2456 18.0821 68.6271 18.6951C69.0131 19.3126 69.2017 20.0106 69.2017 20.7892C69.2017 21.9436 68.7887 22.8699 67.9583 23.559C67.1279 24.2525 65.9878 24.5971 64.5424 24.5971H62.7155L62.711 24.6016ZM62.711 22.3956H64.5873C65.1439 22.3956 65.5658 22.2569 65.8576 21.9794C66.1494 21.702 66.293 21.3127 66.293 20.8071C66.293 20.2522 66.1449 19.8093 65.8441 19.4781C65.5434 19.147 65.1349 18.977 64.6187 18.9725H62.7065V22.3911L62.711 22.3956Z" fill="#0099D9"/>
<path d="M74.018 16.771L76.6708 25.0177L79.3146 16.771H83.0851V28.6242H80.2123V25.8589L80.4906 20.1941L77.6179 28.6287H75.7237L72.8419 20.1896L73.1202 25.8634V28.6287H70.252V16.7755H74.018V16.771Z" fill="#0099D9"/>
<path d="M91.4519 23.5901H87.2325V26.4226H92.2688V28.6196H84.3643V16.7664H92.2823V18.9723H87.228V21.4736H91.4474V23.5901H91.4519Z" fill="#0099D9"/>
<path d="M103.163 28.6242H100.313L96.0978 21.2501V28.6242H93.2295V16.771H96.0978L100.304 24.1451V16.771H103.163V28.6242Z" fill="#0099D9"/>
<path d="M114.071 18.977H110.502V28.6242H107.634V18.977H104.133V16.771H114.071V18.977Z" fill="#0099D9"/>
</g>
<defs>
<clipPath id="clip0_114_1443">
<rect width="115" height="60" fill="white"/>
</clipPath>
</defs>
</svg>
