<svg width="210" height="42" viewBox="0 0 210 42" fill="none" xmlns="http://www.w3.org/2000/svg">
<g clip-path="url(#clip0_223_1320)">
<path d="M31.3123 13.7459H27.5879V41.3086H31.3123V13.7459Z" fill="#00A0E9"/>
<path d="M36.0303 41.3086H39.7271V28.5982H50.7899V25.4417H39.7271V16.9024H50.7899V13.7459H36.0303V41.3086Z" fill="#00A0E9"/>
<path d="M55.0654 41.3086H70.8182V38.1521H58.7622V28.5982H70.8182V25.4417H58.7622V16.9024H70.8182V13.7459H55.0654V41.3086Z" fill="#00A0E9"/>
<path d="M114.214 18.4524H95.6472V0.5H90.8193V41.3086H95.6472V23.3844H114.214V41.3086H119.042V0.5H114.214V18.4524Z" fill="#00A0E9"/>
<path d="M135.182 13.2951C128.257 13.2951 123.595 19.0443 123.595 27.6119C123.595 36.1794 128.257 41.9287 135.182 41.9287C142.106 41.9287 146.796 36.1794 146.796 27.6119C146.796 19.0443 142.134 13.2951 135.182 13.2951ZM135.237 38.7159C130.492 38.7159 127.54 34.4603 127.54 27.6119C127.54 20.7635 130.492 16.5079 135.237 16.5079C139.982 16.5079 142.879 20.7635 142.879 27.6119C142.879 34.4603 139.954 38.7159 135.237 38.7159Z" fill="#00A0E9"/>
<path d="M166.604 29.8664C166.604 32.9947 166.521 33.8965 166.162 34.9675C165.362 37.363 163.211 38.7158 160.231 38.7158C157.5 38.7158 155.431 37.5603 154.52 35.5311C153.969 34.2629 153.831 33.3047 153.831 29.8664V13.8304H150.134V29.9509C150.134 34.2629 150.272 35.3056 150.989 36.8557C152.396 40.0122 155.845 41.9004 160.231 41.9004C164.618 41.9004 168.038 40.0122 169.445 36.8557C170.19 35.2211 170.328 34.122 170.328 29.9227V13.8022H166.631V29.8382L166.604 29.8664Z" fill="#00A0E9"/>
<path d="M184.012 25.5546C181.254 24.3145 180.095 23.779 179.323 23.2718C178.274 22.5954 177.667 21.5244 177.667 20.3971C177.667 18.1707 179.709 16.4797 182.385 16.4797C185.282 16.4797 187.158 18.1707 187.489 21.0453H190.992C190.882 19.1007 190.496 17.8889 189.668 16.6488C188.178 14.5069 185.585 13.2951 182.523 13.2951C177.529 13.2951 174.026 16.3952 174.026 20.848C174.026 22.7926 174.743 24.4554 176.122 25.6955C177.198 26.6819 178.771 27.5837 181.64 28.8237C184.399 30.0356 185.254 30.4583 186.164 31.1065C187.461 32.0648 188.068 33.1357 188.068 34.4885C188.068 36.9685 185.916 38.6877 182.826 38.6877C179.185 38.6877 177.06 36.6585 176.646 32.8257H173.115C173.253 35.193 173.695 36.7149 174.66 38.1804C176.315 40.6041 179.074 41.8723 182.716 41.8723C188.233 41.8723 191.792 38.7159 191.792 33.8403C191.792 31.9238 191.213 30.2892 190.109 29.0492C189.061 27.9219 188.399 27.4992 184.012 25.5546Z" fill="#00A0E9"/>
<path d="M210 16.9024V13.7459H194.247V41.3086H210V38.1521H197.944V28.5982H210V25.4417H197.944V16.9024H210Z" fill="#00A0E9"/>
<path d="M4.8279 0.5H0V41.3086H22.1808V36.4048H4.8279V0.5Z" fill="#00A0E9"/>
</g>
<defs>
<clipPath id="clip0_223_1320">
<rect width="210" height="42" fill="white"/>
</clipPath>
</defs>
</svg>
