<svg width="674" height="131" viewBox="0 0 674 131" fill="none" xmlns="http://www.w3.org/2000/svg">
<path d="M100.497 41.5929H88.5439V128.142H100.497V41.5929Z" fill="white"/>
<path d="M115.639 128.142H127.504V88.2301H163.01V78.3186H127.504V51.5044H163.01V41.5929H115.639V128.142Z" fill="white"/>
<path d="M176.734 128.142H227.293V118.23H188.599V88.2301H227.293V78.3186H188.599V51.5044H227.293V41.5929H176.734V128.142Z" fill="white"/>
<path d="M366.574 56.3717H306.984V0H291.488V128.142H306.984V71.8584H366.574V128.142H382.069V0H366.574V56.3717Z" fill="white"/>
<path d="M433.867 40.177C411.643 40.177 396.679 58.2301 396.679 85.1328C396.679 112.035 411.643 130.089 433.867 130.089C456.092 130.089 471.145 112.035 471.145 85.1328C471.145 58.2301 456.181 40.177 433.867 40.177ZM434.044 120C418.815 120 409.341 106.637 409.341 85.1328C409.341 63.6283 418.815 50.2655 434.044 50.2655C449.274 50.2655 458.571 63.6283 458.571 85.1328C458.571 106.637 449.186 120 434.044 120Z" fill="white"/>
<path d="M534.719 92.2124C534.719 102.035 534.454 104.867 533.303 108.23C530.735 115.752 523.828 120 514.266 120C505.5 120 498.859 116.372 495.937 110C494.166 106.018 493.723 103.009 493.723 92.2124V41.8584H481.858V92.4779C481.858 106.018 482.301 109.292 484.603 114.159C489.119 124.071 500.187 130 514.266 130C528.344 130 539.324 124.071 543.839 114.159C546.23 109.027 546.673 105.575 546.673 92.3894V41.7699H534.808V92.1239L534.719 92.2124Z" fill="white"/>
<path d="M590.591 78.6726C581.737 74.7788 578.018 73.0974 575.539 71.5044C572.174 69.3805 570.226 66.0177 570.226 62.4779C570.226 55.4867 576.778 50.177 585.367 50.177C594.664 50.177 600.685 55.4867 601.748 64.5133H612.993C612.639 58.4071 611.399 54.6018 608.743 50.708C603.961 43.9823 595.638 40.177 585.81 40.177C569.783 40.177 558.538 49.9115 558.538 63.8938C558.538 70 560.84 75.2212 565.268 79.115C568.721 82.2124 573.768 85.0443 582.976 88.9381C591.831 92.7434 594.576 94.0708 597.498 96.1062C601.659 99.115 603.607 102.478 603.607 106.726C603.607 114.513 596.701 119.912 586.784 119.912C575.096 119.912 568.278 113.54 566.95 101.504H555.616C556.059 108.938 557.476 113.717 560.575 118.319C565.887 125.929 574.742 129.912 586.43 129.912C604.139 129.912 615.561 120 615.561 104.69C615.561 98.6726 613.701 93.5398 610.16 89.646C606.795 86.1062 604.67 84.7788 590.591 78.6726Z" fill="white"/>
<path d="M674 51.5044V41.5929H623.441V128.142H674V118.23H635.306V88.2301H674V78.3186H635.306V51.5044H674Z" fill="white"/>
<path d="M15.4953 0H0V128.142H71.1897V112.743H15.4953V0Z" fill="white"/>
</svg>
