<svg width="40" height="40" viewBox="0 0 40 40" fill="none" xmlns="http://www.w3.org/2000/svg">
<path d="M20.0003 22.3333L11.8337 30.5C11.5281 30.8055 11.1392 30.9583 10.667 30.9583C10.1948 30.9583 9.80588 30.8055 9.50032 30.5C9.19477 30.1944 9.04199 29.8055 9.04199 29.3333C9.04199 28.8611 9.19477 28.4722 9.50032 28.1666L17.667 20L9.50032 11.8333C9.19477 11.5277 9.04199 11.1388 9.04199 10.6666C9.04199 10.1944 9.19477 9.80551 9.50032 9.49996C9.80588 9.1944 10.1948 9.04163 10.667 9.04163C11.1392 9.04163 11.5281 9.1944 11.8337 9.49996L20.0003 17.6666L28.167 9.49996C28.4725 9.1944 28.8614 9.04163 29.3337 9.04163C29.8059 9.04163 30.1948 9.1944 30.5003 9.49996C30.8059 9.80551 30.9587 10.1944 30.9587 10.6666C30.9587 11.1388 30.8059 11.5277 30.5003 11.8333L22.3337 20L30.5003 28.1666C30.8059 28.4722 30.9587 28.8611 30.9587 29.3333C30.9587 29.8055 30.8059 30.1944 30.5003 30.5C30.1948 30.8055 29.8059 30.9583 29.3337 30.9583C28.8614 30.9583 28.4725 30.8055 28.167 30.5L20.0003 22.3333Z" fill="white"/>
</svg>
