<svg width="210" height="40" viewBox="0 0 210 40" fill="none" xmlns="http://www.w3.org/2000/svg">
<g clip-path="url(#clip0_223_1347)">
<path d="M31.3123 12.7979H27.5879V39.4282H31.3123V12.7979Z" fill="#00A0E9"/>
<path d="M36.0303 39.4282H39.7271V27.1477H50.7899V24.0981H39.7271V15.8475H50.7899V12.7979H36.0303V39.4282Z" fill="#00A0E9"/>
<path d="M55.0654 39.4282H70.8182V36.3785H58.7622V27.1477H70.8182V24.0981H58.7622V15.8475H70.8182V12.7979H55.0654V39.4282Z" fill="#00A0E9"/>
<path d="M114.214 17.3451H95.6472V0H90.8193V39.4282H95.6472V22.1103H114.214V39.4282H119.042V0H114.214V17.3451Z" fill="#00A0E9"/>
<path d="M135.182 12.3623C128.257 12.3623 123.595 17.9171 123.595 26.1948C123.595 34.4726 128.257 40.0274 135.182 40.0274C142.106 40.0274 146.796 34.4726 146.796 26.1948C146.796 17.9171 142.134 12.3623 135.182 12.3623ZM135.237 36.9232C130.492 36.9232 127.54 32.8116 127.54 26.1948C127.54 19.5781 130.492 15.4665 135.237 15.4665C139.982 15.4665 142.879 19.5781 142.879 26.1948C142.879 32.8116 139.954 36.9232 135.237 36.9232Z" fill="#00A0E9"/>
<path d="M166.604 28.3728C166.604 31.3953 166.521 32.2666 166.162 33.3013C165.362 35.6158 163.211 36.9228 160.231 36.9228C157.5 36.9228 155.431 35.8064 154.52 33.8459C153.969 32.6206 153.831 31.6948 153.831 28.3728V12.8793H150.134V28.4545C150.134 32.6206 150.272 33.6281 150.989 35.1257C152.396 38.1754 155.845 39.9998 160.231 39.9998C164.618 39.9998 168.038 38.1754 169.445 35.1257C170.19 33.5464 170.328 32.4845 170.328 28.4273V12.8521H166.631V28.3456L166.604 28.3728Z" fill="#00A0E9"/>
<path d="M184.012 24.2071C181.254 23.009 180.095 22.4916 179.323 22.0015C178.274 21.348 177.667 20.3133 177.667 19.2241C177.667 17.073 179.709 15.4392 182.385 15.4392C185.282 15.4392 187.158 17.073 187.489 19.8504H190.992C190.882 17.9716 190.496 16.8007 189.668 15.6026C188.178 13.5332 185.585 12.3623 182.523 12.3623C177.529 12.3623 174.026 15.3575 174.026 19.6598C174.026 21.5386 174.743 23.1451 176.122 24.3432C177.198 25.2963 178.771 26.1676 181.64 27.3657C184.399 28.5366 185.254 28.945 186.164 29.5713C187.461 30.4971 188.068 31.5318 188.068 32.8388C188.068 35.235 185.916 36.896 182.826 36.896C179.185 36.896 177.06 34.9355 176.646 31.2323H173.115C173.253 33.5196 173.695 34.9899 174.66 36.4059C176.315 38.7476 179.074 39.9729 182.716 39.9729C188.233 39.9729 191.792 36.9232 191.792 32.2125C191.792 30.3609 191.213 28.7816 190.109 27.5835C189.061 26.4944 188.399 26.0859 184.012 24.2071Z" fill="#00A0E9"/>
<path d="M210 15.8475V12.7979H194.247V39.4282H210V36.3785H197.944V27.1477H210V24.0981H197.944V15.8475H210Z" fill="#00A0E9"/>
<path d="M4.8279 0H0V39.4282H22.1808V34.6903H4.8279V0Z" fill="#00A0E9"/>
</g>
<defs>
<clipPath id="clip0_223_1347">
<rect width="210" height="40" fill="white"/>
</clipPath>
</defs>
</svg>
